<svg width="56" height="56" viewBox="0 0 56 56" fill="none" xmlns="http://www.w3.org/2000/svg">
<g clip-path="url(#clip0_423_7647)">
<mask id="mask0_423_7647" style="mask-type:luminance" maskUnits="userSpaceOnUse" x="0" y="0" width="56" height="56">
<path d="M56 0H0V56H56V0Z" fill="white"/>
</mask>
<g mask="url(#mask0_423_7647)">
<path d="M54.8334 27.9905C54.8334 42.8044 42.8201 54.8142 28.0001 54.8142C13.18 54.8142 1.16675 42.8044 1.16675 27.9905C1.16675 13.1765 13.18 1.16675 28.0001 1.16675C42.8201 1.16675 54.8334 13.1765 54.8334 27.9905Z" fill="url(#paint0_linear_423_7647)"/>
<path d="M40.3472 28.5651L32.5835 26.9167L30.9351 19.153C30.8774 18.8645 30.622 18.6667 30.3335 18.6667C30.045 18.6667 29.7896 18.8728 29.7318 19.153L28.0835 26.9167L20.3198 28.5651C20.0312 28.6228 19.8335 28.8782 19.8335 29.1667C19.8335 29.4553 20.0395 29.7106 20.3198 29.7684L28.0835 31.4168L29.7318 39.1805C29.7896 39.469 30.045 39.6667 30.3335 39.6667C30.622 39.6667 30.8774 39.4607 30.9351 39.1805L32.5835 31.4168L40.3472 29.7684C40.6357 29.7106 40.8335 29.4553 40.8335 29.1667C40.8335 28.8782 40.6275 28.6228 40.3472 28.5651Z" fill="white"/>
<path d="M19.8334 24.5001C20.118 24.5001 20.37 24.2968 20.4269 24.0205L21.0529 21.0529L24.0205 20.4269C24.305 20.37 24.5001 20.118 24.5001 19.8334C24.5001 19.5489 24.2968 19.2969 24.0205 19.2399L21.0529 18.6139L20.4269 15.6464C20.37 15.3618 20.118 15.1667 19.8334 15.1667C19.5489 15.1667 19.2969 15.37 19.2399 15.6464L18.6139 18.6139L15.6464 19.2399C15.3618 19.2969 15.1667 19.5489 15.1667 19.8334C15.1667 20.118 15.37 20.37 15.6464 20.4269L18.6139 21.0529L19.2399 24.0205C19.2969 24.305 19.5489 24.5001 19.8334 24.5001Z" fill="white"/>
</g>
</g>
<defs>
<linearGradient id="paint0_linear_423_7647" x1="28.0001" y1="1.16675" x2="28.0001" y2="54.8142" gradientUnits="userSpaceOnUse">
<stop stop-color="#F56E6E"/>
<stop offset="1" stop-color="#5E40BE"/>
</linearGradient>
<clipPath id="clip0_423_7647">
<rect width="56" height="56" rx="28" fill="white"/>
</clipPath>
</defs>
</svg>
